<svg xmlns="http://www.w3.org/2000/svg" viewBox="0 0 512 512" width="512" height="512">
  <defs>
    <linearGradient id="bg" x1="0" y1="0" x2="1" y2="1">
      <stop offset="0%" stop-color="#1e293b"/>
      <stop offset="100%" stop-color="#0f172a"/>
    </linearGradient>
  </defs>

  <!-- Background -->
  <rect width="512" height="512" rx="96" ry="96" fill="url(#bg)"/>

  <!-- Deleted line row -->
  <rect x="60" y="144" width="392" height="56" rx="12" fill="#dc2626" opacity="0.2"/>
  <!-- Minus sign -->
  <rect x="78" y="168" width="20" height="6" rx="3" fill="#f87171"/>
  <rect x="120" y="164" width="140" height="20" rx="6" fill="#f87171" opacity="0.8"/>
  <rect x="276" y="164" width="80" height="20" rx="6" fill="#f87171" opacity="0.5"/>

  <!-- Context line row -->
  <rect x="120" y="228" width="100" height="16" rx="5" fill="#94a3b8" opacity="0.35"/>
  <rect x="236" y="228" width="60" height="16" rx="5" fill="#94a3b8" opacity="0.25"/>

  <!-- Added line row -->
  <rect x="60" y="268" width="392" height="56" rx="12" fill="#16a34a" opacity="0.2"/>
  <!-- Plus sign (horizontal) -->
  <rect x="78" y="293" width="20" height="6" rx="3" fill="#4ade80"/>
  <!-- Plus sign (vertical) -->
  <rect x="85" y="286" width="6" height="20" rx="3" fill="#4ade80"/>
  <rect x="120" y="288" width="172" height="20" rx="6" fill="#4ade80" opacity="0.8"/>
  <rect x="308" y="288" width="64" height="20" rx="6" fill="#4ade80" opacity="0.5"/>

  <!-- Context line row -->
  <rect x="120" y="352" width="80" height="16" rx="5" fill="#94a3b8" opacity="0.35"/>

  <!-- Checkmark badge -->
  <circle cx="400" cy="400" r="56" fill="#0f172a" opacity="0.6"/>
  <circle cx="400" cy="400" r="48" fill="#22c55e"/>
  <polyline points="378,400 394,416 424,384" fill="none" stroke="#fff" stroke-width="9" stroke-linecap="round" stroke-linejoin="round"/>
</svg>
